<svg xmlns="http://www.w3.org/2000/svg" width="840" height="44" viewBox="0 0 840 44" role="img" aria-label="SYSTEM SPECS">
<defs><filter id="glow" x="-10%" y="-30%" width="120%" height="160%"><feGaussianBlur stdDeviation="2" result="b"/><feMerge><feMergeNode in="b"/><feMergeNode in="SourceGraphic"/></feMerge></filter></defs>
<g filter="url(#glow)">
<rect x="0" y="21" width="233" height="2" fill="#2de2ff" opacity=".45"/><rect x="606" y="21" width="234" height="2" fill="#2de2ff" opacity=".45"/>
<rect x="279" y="16" width="10" height="12" fill="#ff4fa3"/><rect x="550" y="16" width="10" height="12" fill="#ff4fa3"/><rect x="265" y="16" width="10" height="12" fill="#ffb627"/><rect x="564" y="16" width="10" height="12" fill="#ffb627"/><rect x="251" y="16" width="10" height="12" fill="#2de2ff"/><rect x="578" y="16" width="10" height="12" fill="#2de2ff"/><path class="" fill="#2de2ff" d="M316 12h3v3h-3zM319 12h3v3h-3zM322 12h3v3h-3zM325 12h3v3h-3zM313 15h3v3h-3zM313 18h3v3h-3zM316 21h3v3h-3zM319 21h3v3h-3zM322 21h3v3h-3zM325 24h3v3h-3zM325 27h3v3h-3zM313 30h3v3h-3zM316 30h3v3h-3zM319 30h3v3h-3zM322 30h3v3h-3zM331 12h3v3h-3zM343 12h3v3h-3zM331 15h3v3h-3zM343 15h3v3h-3zM334 18h3v3h-3zM340 18h3v3h-3zM337 21h3v3h-3zM337 24h3v3h-3zM337 27h3v3h-3zM337 30h3v3h-3zM352 12h3v3h-3zM355 12h3v3h-3zM358 12h3v3h-3zM361 12h3v3h-3zM349 15h3v3h-3zM349 18h3v3h-3zM352 21h3v3h-3zM355 21h3v3h-3zM358 21h3v3h-3zM361 24h3v3h-3zM361 27h3v3h-3zM349 30h3v3h-3zM352 30h3v3h-3zM355 30h3v3h-3zM358 30h3v3h-3zM367 12h3v3h-3zM370 12h3v3h-3zM373 12h3v3h-3zM376 12h3v3h-3zM379 12h3v3h-3zM373 15h3v3h-3zM373 18h3v3h-3zM373 21h3v3h-3zM373 24h3v3h-3zM373 27h3v3h-3zM373 30h3v3h-3zM385 12h3v3h-3zM388 12h3v3h-3zM391 12h3v3h-3zM394 12h3v3h-3zM397 12h3v3h-3zM385 15h3v3h-3zM385 18h3v3h-3zM385 21h3v3h-3zM388 21h3v3h-3zM391 21h3v3h-3zM394 21h3v3h-3zM385 24h3v3h-3zM385 27h3v3h-3zM385 30h3v3h-3zM388 30h3v3h-3zM391 30h3v3h-3zM394 30h3v3h-3zM397 30h3v3h-3zM403 12h3v3h-3zM415 12h3v3h-3zM403 15h3v3h-3zM406 15h3v3h-3zM412 15h3v3h-3zM415 15h3v3h-3zM403 18h3v3h-3zM409 18h3v3h-3zM415 18h3v3h-3zM403 21h3v3h-3zM409 21h3v3h-3zM415 21h3v3h-3zM403 24h3v3h-3zM415 24h3v3h-3zM403 27h3v3h-3zM415 27h3v3h-3zM403 30h3v3h-3zM415 30h3v3h-3zM442 12h3v3h-3zM445 12h3v3h-3zM448 12h3v3h-3zM451 12h3v3h-3zM439 15h3v3h-3zM439 18h3v3h-3zM442 21h3v3h-3zM445 21h3v3h-3zM448 21h3v3h-3zM451 24h3v3h-3zM451 27h3v3h-3zM439 30h3v3h-3zM442 30h3v3h-3zM445 30h3v3h-3zM448 30h3v3h-3zM457 12h3v3h-3zM460 12h3v3h-3zM463 12h3v3h-3zM466 12h3v3h-3zM457 15h3v3h-3zM469 15h3v3h-3zM457 18h3v3h-3zM469 18h3v3h-3zM457 21h3v3h-3zM460 21h3v3h-3zM463 21h3v3h-3zM466 21h3v3h-3zM457 24h3v3h-3zM457 27h3v3h-3zM457 30h3v3h-3zM475 12h3v3h-3zM478 12h3v3h-3zM481 12h3v3h-3zM484 12h3v3h-3zM487 12h3v3h-3zM475 15h3v3h-3zM475 18h3v3h-3zM475 21h3v3h-3zM478 21h3v3h-3zM481 21h3v3h-3zM484 21h3v3h-3zM475 24h3v3h-3zM475 27h3v3h-3zM475 30h3v3h-3zM478 30h3v3h-3zM481 30h3v3h-3zM484 30h3v3h-3zM487 30h3v3h-3zM496 12h3v3h-3zM499 12h3v3h-3zM502 12h3v3h-3zM493 15h3v3h-3zM505 15h3v3h-3zM493 18h3v3h-3zM493 21h3v3h-3zM493 24h3v3h-3zM493 27h3v3h-3zM505 27h3v3h-3zM496 30h3v3h-3zM499 30h3v3h-3zM502 30h3v3h-3zM514 12h3v3h-3zM517 12h3v3h-3zM520 12h3v3h-3zM523 12h3v3h-3zM511 15h3v3h-3zM511 18h3v3h-3zM514 21h3v3h-3zM517 21h3v3h-3zM520 21h3v3h-3zM523 24h3v3h-3zM523 27h3v3h-3zM511 30h3v3h-3zM514 30h3v3h-3zM517 30h3v3h-3zM520 30h3v3h-3z"/>
</g></svg>